# Simple Home Model
# Units: meters
# Objects are grouped for easy selection.

# Shared vertices (do not delete)
v -6.0 0.0 -8.0
v 6.0 0.0 -8.0
v 6.0 0.0 8.0
v -6.0 0.0 8.0
v -6.0 3.0 -8.0
v 6.0 3.0 -8.0
v 6.0 3.0 8.0
v -6.0 3.0 8.0
v -6.0 4.5 0.0
v 6.0 4.5 0.0
v -4.0 0.0 -9.5
v 4.0 0.0 -9.5
v 4.0 0.0 -8.0
v -4.0 0.0 -8.0
v -3.0 0.0 8.0
v 3.0 0.0 8.0
v 3.0 0.0 10.5
v -3.0 0.0 10.5
v 6.0 0.0 -4.0
v 10.5 0.0 -4.0
v 10.5 0.0 3.0
v 6.0 0.0 3.0
v 6.0 3.0 -4.0
v 10.5 3.0 -4.0
v 10.5 3.0 3.0
v 6.0 3.0 3.0
v -0.5 0.0 -8.0
v 0.5 0.0 -8.0
v 0.5 2.2 -8.0
v -0.5 2.2 -8.0
v -5.5 1.0 -2.0
v -5.5 2.0 -2.0
v -5.5 2.0 2.0
v -5.5 1.0 2.0
v 5.5 1.2 -6.0
v 5.5 2.0 -6.0
v 5.5 2.0 -1.0
v 5.5 1.2 -1.0
v -2.0 0.0 -8.0
v -2.0 3.0 -8.0
v -2.0 0.0 8.0
v -2.0 3.0 8.0
v 0.0 0.0 -8.0
v 0.0 3.0 -8.0
v 0.0 0.0 8.0
v 0.0 3.0 8.0
v 2.0 0.0 -3.0
v 2.0 3.0 -3.0
v 6.0 0.0 -3.0
v 6.0 3.0 -3.0

# Objects

o FloorPlate
f 1 2 3
f 1 3 4

o ExteriorWalls
f 1 2 6
f 1 6 5
f 2 3 7
f 2 7 6
f 3 4 8
f 3 8 7
f 4 1 5
f 4 5 8

# simple parapet cap
o Roof
f 5 6 10
f 5 10 9
f 8 7 10
f 8 10 9

# porch slab
o FrontPorch
f 11 12 13
f 11 13 14

# patio slab
o RearPatio
f 15 16 17
f 15 17 18

# garage shell
o Garage
f 19 20 21
f 19 21 22
f 19 20 24
f 19 24 23
f 20 21 25
f 20 25 24
f 21 22 26
f 21 26 25
f 22 19 23
f 22 23 26
f 23 24 25
f 23 25 26

# entry door plane
o Door
f 27 28 29
f 27 29 30

# glazing cards
o Windows
f 31 32 33
f 31 33 34
f 35 36 37
f 35 37 38

# interior partitions
o InteriorCore
f 39 40 42
f 39 42 41
f 43 44 46
f 43 46 45
f 47 48 50
f 47 50 49
