# Simple Construction Site Model
# Units: meters

o GroundPlane
v -20.0 0.0 -20.0
v 20.0 0.0 -20.0
v 20.0 0.0 20.0
v -20.0 0.0 20.0
f 1 2 3
f 1 3 4

o MainBuilding
v -5.0 0.0 -5.0
v 5.0 0.0 -5.0
v 5.0 0.0 5.0
v -5.0 0.0 5.0
v -5.0 8.0 -5.0
v 5.0 8.0 -5.0
v 5.0 8.0 5.0
v -5.0 8.0 5.0
f 5 6 7
f 5 7 8
f 5 6 10
f 5 10 9
f 6 7 11
f 6 11 10
f 7 8 12
f 7 12 11
f 8 5 9
f 8 9 12
f 9 10 11
f 9 11 12

o TowerCrane
v 8.0 0.0 -2.0
v 9.0 0.0 -2.0
v 9.0 0.0 -1.0
v 8.0 0.0 -1.0
v 8.0 15.0 -2.0
v 9.0 15.0 -2.0
v 9.0 15.0 -1.0
v 8.0 15.0 -1.0
v 20.0 15.0 0.0
v 20.0 15.0 -3.0
f 13 14 15
f 13 15 16
f 13 14 18
f 13 18 17
f 14 15 19
f 14 19 18
f 15 16 20
f 15 20 19
f 16 13 17
f 16 17 20
f 17 18 19
f 17 19 20
f 18 19 21
f 18 21 22

o MaterialContainer
v -15.0 0.0 8.0
v -10.0 0.0 8.0
v -10.0 0.0 14.0
v -15.0 0.0 14.0
v -15.0 3.0 8.0
v -10.0 3.0 8.0
v -10.0 3.0 14.0
v -15.0 3.0 14.0
f 23 24 25
f 23 25 26
f 23 24 28
f 23 28 27
f 24 25 29
f 24 29 28
f 25 26 30
f 25 30 29
f 26 23 27
f 26 27 30
f 27 28 29
f 27 29 30

o SiteOffice
v -18.0 0.0 -10.0
v -12.0 0.0 -10.0
v -12.0 0.0 -5.0
v -18.0 0.0 -5.0
v -18.0 4.0 -10.0
v -12.0 4.0 -10.0
v -12.0 4.0 -5.0
v -18.0 4.0 -5.0
f 31 32 33
f 31 33 34
f 31 32 36
f 31 36 35
f 32 33 37
f 32 37 36
f 33 34 38
f 33 38 37
f 34 31 35
f 34 35 38
f 35 36 37
f 35 37 38
